<svg width="24" height="24" viewBox="0 0 24 24" fill="none" xmlns="http://www.w3.org/2000/svg">
<g opacity="0.5">
<path d="M23.9876 23.9997H18.848V23.6928C18.848 20.9647 18.8588 18.2367 18.8393 15.509C18.8352 14.9137 18.7721 14.3077 18.65 13.7261C18.4322 12.6874 17.8655 11.9341 16.8105 11.7396C15.7285 11.5403 14.7997 11.8583 14.0956 12.7731C13.6697 13.3264 13.4481 13.9548 13.4492 14.6751C13.4537 17.6732 13.4492 20.6712 13.4477 23.6696C13.4477 23.7718 13.4477 23.8743 13.4477 23.9918H8.29834V7.81885H13.4409V10.1186C13.5668 9.96844 13.6445 9.87333 13.7241 9.7802C14.6356 8.71248 15.6917 7.84596 17.0539 7.55594C19.4263 7.05136 22.3148 7.99019 23.4494 11.193C23.8088 12.2076 23.9834 13.2616 23.9894 14.336C24.0071 17.4908 23.9977 20.646 23.9981 23.8009C23.9981 23.8598 23.9917 23.9188 23.9868 24.0001L23.9876 23.9997Z" fill="#00488A"/>
<path d="M5.43539 23.9999H0.324707V7.81665H5.43539V23.9999Z" fill="#00488A"/>
<path d="M1.13896e-05 2.81024C-0.00374426 1.40023 0.921647 0.275139 2.26129 0.0601804C3.11908 -0.0773618 3.94832 -0.0030903 4.67354 0.535289C5.5948 1.21868 5.92455 2.1968 5.73864 3.33015C5.55011 4.47961 4.84142 5.18815 3.77669 5.48603C3.06162 5.68605 2.34241 5.65736 1.64499 5.37599C0.632462 4.96651 0.00301591 3.97856 1.13896e-05 2.81024Z" fill="#00488A"/>
</g>
</svg>
