<svg width="200" height="37" viewBox="0 0 200 37" fill="none" xmlns="http://www.w3.org/2000/svg">
<path d="M27.0452 0.00170898C27.1143 0.0562539 27.1761 0.125344 27.2525 0.163526C30.0252 1.5526 32.7979 2.93986 35.5742 4.32167C36.1069 4.58712 36.356 5.00712 36.356 5.59439C36.356 8.37436 36.356 11.1543 36.3542 13.9343C36.3542 14.4761 36.096 14.8743 35.6179 15.1216C34.7451 15.5743 33.8724 16.0288 32.9924 16.4688C31.9506 16.9906 30.9034 17.4997 29.8579 18.0161C29.7597 18.0652 29.667 18.1288 29.5343 18.2088C29.6506 18.267 29.7288 18.307 29.807 18.347C31.7143 19.3015 33.6197 20.2615 35.5288 21.2088C36.0869 21.487 36.3633 21.9015 36.3597 22.5397C36.3469 25.2887 36.3488 28.0378 36.3597 30.7887C36.3615 31.3378 36.1397 31.7469 35.6779 32.0087C35.1124 32.3305 34.5342 32.6305 33.9542 32.9232C32.1833 33.8141 30.4106 34.7014 28.6343 35.5814C28.1543 35.8196 27.6561 36.0214 27.1688 36.245C27.1198 36.2668 27.087 36.325 27.0452 36.3668H26.3179C26.2361 36.3177 26.1561 36.2577 26.0689 36.2177C25.7798 36.0887 25.4779 35.9814 25.1961 35.8396C22.9507 34.7159 20.7071 33.5869 18.4671 32.4541C18.2962 32.3687 18.1489 32.3596 17.978 32.4505C17.598 32.6541 17.2108 32.845 16.8235 33.036C14.6217 34.1123 12.4199 35.1868 10.2199 36.2632C10.1835 36.2814 10.1654 36.3323 10.1381 36.3668H9.41082C9.22355 36.2759 9.03628 36.1832 8.84901 36.0923C7.86538 35.6105 6.87812 35.1377 5.90176 34.645C4.18905 33.7832 2.4818 32.9087 0.770902 32.0396C0.461814 31.8832 0.229089 31.6614 0.118181 31.3232C0.101817 31.2705 0.0418178 31.2323 0.00181817 31.1869C0.00181817 28.1869 0.00181817 25.1869 0.00181817 22.187C0.0236361 22.1579 0.0563631 22.1306 0.0654539 22.0979C0.189089 21.6361 0.512723 21.3597 0.919992 21.1542C1.56726 20.827 2.20725 20.487 2.85816 20.1652C3.81815 19.6888 4.78541 19.2234 5.74904 18.7524C6.1054 18.5779 6.45994 18.4034 6.8563 18.2088C6.74903 18.1506 6.68539 18.1125 6.61994 18.0815C6.25267 17.9034 5.88358 17.7306 5.51995 17.5488C4.20723 16.8943 2.88906 16.2525 1.58908 15.5761C0.985445 15.2616 0.289088 15.0325 0.021818 14.2943C0.0199998 14.2889 0.00909083 14.2852 0.00363633 14.2816C0 11.2598 0 8.24345 0 5.22893C0.0290906 5.1853 0.0690903 5.1453 0.0836356 5.09621C0.196362 4.73439 0.44545 4.4944 0.770902 4.31985C0.930901 4.2344 1.08544 4.13985 1.24726 4.05985C2.79997 3.27986 4.34723 2.49441 5.90722 1.72715C7.03085 1.17443 8.16902 0.650794 9.2981 0.110799C9.33082 0.0962536 9.34173 0.0380723 9.36355 0.00170898C9.62173 0.00170898 9.87809 0.00170898 10.1363 0.00170898C10.1981 0.0526176 10.2545 0.116253 10.3235 0.152617C10.6326 0.312615 10.9454 0.465341 11.2563 0.621703C13.4744 1.73078 15.6944 2.83986 17.9126 3.95076C18.0671 4.02894 18.2071 4.06713 18.3816 3.97804C19.8289 3.23623 21.2743 2.49078 22.7307 1.77078C23.8816 1.2017 25.0489 0.665339 26.207 0.110799C26.2398 0.0962536 26.2507 0.0380723 26.2725 0.00170898C26.5307 0.00170898 26.787 0.00170898 27.0452 0.00170898ZM25.3361 16.1125C25.3361 15.9197 25.3361 15.767 25.3361 15.6143C25.3325 14.0379 25.3234 12.4634 25.3307 10.8871C25.3307 10.6271 25.2561 10.4816 25.0089 10.3671C24.2689 10.0234 23.5398 9.65071 22.8125 9.28162C21.3562 8.54163 19.9016 7.79982 18.4489 7.05074C18.2617 6.95437 18.1053 6.93983 17.9217 7.05437C17.698 7.19437 17.4635 7.32164 17.2271 7.43982C15.2853 8.41254 13.349 9.39435 11.3926 10.338C11.0708 10.4943 11.0254 10.6725 11.0254 10.9762C11.0272 15.8688 11.0217 20.7615 11.0144 25.6542C11.0144 25.8106 11.0708 25.8997 11.2144 25.9687C12.1981 26.4524 13.1781 26.9451 14.1599 27.4342C15.4053 28.056 16.6526 28.6742 17.8926 29.3051C18.1089 29.416 18.2835 29.4105 18.4816 29.2869C18.6744 29.1669 18.8762 29.0614 19.078 28.9596C21.1071 27.9451 23.1362 26.9306 25.1689 25.9215C25.3198 25.8469 25.3743 25.7506 25.3743 25.5851C25.3707 23.9106 25.3707 22.2379 25.3707 20.5633C25.3707 20.4852 25.3598 20.407 25.3525 20.2979C25.1943 20.3688 25.0707 20.4179 24.9507 20.4779C24.0525 20.9306 23.158 21.3906 22.2562 21.8361C21.0834 22.416 19.9107 22.996 18.7253 23.5524C17.9362 23.9233 17.058 23.4542 16.9326 22.6051C16.8835 22.2779 16.878 21.9415 16.8762 21.6088C16.8708 19.5179 16.8708 17.427 16.8762 15.3379C16.8762 14.8688 16.8926 14.3998 16.9217 13.9307C16.958 13.3198 17.3217 12.8798 17.8689 12.738C18.3053 12.6252 18.6835 12.7761 19.0635 12.967C20.9962 13.9398 22.9307 14.9052 24.8652 15.8743C25.0052 15.9452 25.147 16.0143 25.3416 16.1107L25.3361 16.1125ZM15.3471 30.8887C15.2053 30.8087 15.1253 30.756 15.0399 30.7178C14.7853 30.6014 14.5235 30.5014 14.2744 30.376C12.6399 29.5505 11.0144 28.7105 9.37264 27.8996C8.74174 27.5869 8.4581 27.1233 8.46174 26.4215C8.47447 24.5197 8.46174 22.6179 8.4581 20.7179C8.4581 20.5924 8.4581 20.467 8.4581 20.2997C8.29265 20.3706 8.1672 20.4179 8.0472 20.4761C6.27812 21.3506 4.50905 22.2288 2.73816 23.1033C2.62179 23.1615 2.57452 23.2306 2.57452 23.3651C2.57998 25.0997 2.58361 26.8342 2.58179 28.5687C2.58179 29.0233 2.55634 29.4778 2.56361 29.9305C2.56361 30.016 2.65452 30.1396 2.73634 30.1814C4.9945 31.316 7.2563 32.4396 9.51446 33.5705C9.67264 33.6487 9.80173 33.6559 9.96173 33.5759C11.3944 32.856 12.8308 32.1414 14.2671 31.4251C14.6035 31.2578 14.9417 31.0887 15.3453 30.8887H15.3471ZM8.44901 16.1216C8.45992 16.0343 8.46901 15.9907 8.46901 15.9488C8.4672 14.4343 8.46356 12.9198 8.45992 11.4034C8.45992 10.858 8.45629 10.3125 8.46538 9.76707C8.47447 9.23253 8.70174 8.82345 9.19264 8.57436C9.40173 8.4689 9.59991 8.33982 9.809 8.23618C11.5526 7.37801 13.2981 6.52165 15.0399 5.66348C15.1199 5.62348 15.189 5.56348 15.3071 5.48166C15.0144 5.35075 14.7762 5.25439 14.5471 5.14166C13.0308 4.38531 11.5144 3.62895 10.0035 2.86532C9.81082 2.76714 9.65082 2.76168 9.45082 2.86168C7.1963 3.98713 4.93814 5.10348 2.68543 6.23074C2.61452 6.26711 2.5418 6.38529 2.53998 6.46529C2.5327 8.64708 2.53452 10.8289 2.53089 13.0107C2.53089 13.1343 2.57452 13.1961 2.68543 13.2507C4.05996 13.9325 5.43268 14.6234 6.80539 15.3088C7.33811 15.5761 7.87447 15.8379 8.44356 16.1216H8.44901ZM27.9525 20.2797C27.9434 20.3906 27.9343 20.4579 27.9343 20.5252C27.9361 22.1997 27.9434 23.8724 27.9416 25.5469C27.9416 25.9106 27.9179 26.2724 27.9088 26.636C27.8943 27.1596 27.647 27.5396 27.2016 27.8015C27.0834 27.8705 26.9707 27.9487 26.8488 28.0087C25.0198 28.916 23.1889 29.8233 21.3598 30.7305C21.278 30.7705 21.2016 30.8214 21.0871 30.8887C21.2089 30.956 21.2853 31.0032 21.3653 31.0432C22.9616 31.8414 24.5634 32.6269 26.1489 33.445C26.5125 33.6323 26.7925 33.6305 27.1543 33.4469C29.3052 32.3523 31.467 31.2814 33.6288 30.2087C33.7706 30.1378 33.827 30.056 33.827 29.896C33.8215 27.7669 33.8215 25.6397 33.827 23.5106C33.827 23.3088 33.7542 23.1997 33.5724 23.1088C31.8215 22.2324 30.0743 21.347 28.3252 20.4652C28.2125 20.4088 28.0979 20.3524 27.9488 20.2779L27.9525 20.2797ZM21.0489 5.48166C21.1416 5.54348 21.198 5.58893 21.2616 5.61984C22.1525 6.06893 23.0452 6.51619 23.938 6.96165C25.007 7.49619 26.0761 8.02891 27.1452 8.56163C27.6288 8.80163 27.9034 9.17981 27.9016 9.72889C27.8979 11.8034 27.8907 13.8779 27.887 15.9525C27.887 15.9997 27.9052 16.047 27.9197 16.1179C28.0034 16.0779 28.0634 16.0525 28.1216 16.0197C28.4216 15.8597 28.7161 15.687 29.0197 15.5361C30.3815 14.8616 31.7343 14.167 33.1142 13.5361C33.6233 13.3034 33.8088 13.0416 33.7961 12.4634C33.7488 10.4889 33.7761 8.51072 33.7761 6.53438C33.7761 6.40165 33.7706 6.2962 33.6215 6.22165C31.387 5.11075 29.1561 3.9944 26.9288 2.86896C26.707 2.75623 26.5325 2.77441 26.3161 2.8835C24.8234 3.63258 23.3234 4.37076 21.8253 5.11075C21.5816 5.23075 21.3362 5.34166 21.0489 5.47802V5.48166ZM19.4598 20.3033C20.8962 19.5997 22.3143 18.9052 23.7525 18.1997C22.3034 17.4743 20.8907 16.767 19.4598 16.0525V20.3033Z" fill="white"/>
<path d="M199.998 20.1834C199.955 20.4034 199.886 20.6216 199.876 20.8416C199.867 21.0616 199.776 21.0961 199.584 21.0943C196.206 21.0888 192.827 21.0907 189.447 21.0907C187.835 21.0907 186.22 21.0907 184.608 21.0907H184.317C184.349 21.3397 184.368 21.5706 184.411 21.7943C184.791 23.7561 185.878 25.1397 187.811 25.7324C189.22 26.1652 190.626 26.0833 191.94 25.3379C192.66 24.9306 193.173 24.3179 193.558 23.5979C193.657 23.4143 193.769 23.3652 193.967 23.3652C195.747 23.3743 197.527 23.3724 199.307 23.3724C199.351 23.3724 199.396 23.3779 199.478 23.3815C199.38 23.667 199.306 23.9434 199.195 24.2034C197.746 27.6033 195.209 29.6506 191.562 30.2706C189.409 30.636 187.284 30.4742 185.246 29.6488C181.984 28.3288 179.997 25.8852 179.198 22.4961C178.609 19.9998 178.684 17.4943 179.577 15.0725C180.938 11.3762 183.637 9.26712 187.502 8.63077C189.635 8.27986 191.735 8.43441 193.755 9.22349C196.724 10.3817 198.631 12.5307 199.547 15.5725C199.751 16.2471 199.902 16.9307 199.909 17.647C199.94 17.5216 199.969 17.3961 200 17.2707V20.1798L199.998 20.1834ZM194.393 17.4452C194.406 17.4234 194.418 17.4107 194.42 17.3961C194.426 17.3671 194.431 17.3361 194.429 17.3071C194.36 16.0125 193.877 14.9216 192.857 14.0871C191.798 13.2198 190.577 12.878 189.229 12.9107C187.289 12.958 185.849 13.8216 184.933 15.5362C184.617 16.1289 184.451 16.7689 184.353 17.4452H194.393Z" fill="white"/>
<path d="M122.726 0.00181817C122.819 0.0309088 122.911 0.0654539 123.006 0.0854538C124.184 0.343633 125.01 1.03454 125.357 2.17998C125.71 3.33997 125.497 4.40541 124.631 5.33086C123.233 6.82357 120.413 6.58358 119.342 4.79268C118.28 3.01997 119.131 0.534541 121.406 0.0890901C121.455 0.0799993 121.497 0.0309088 121.544 0C121.939 0 122.331 0 122.726 0V0.00181817Z" fill="white"/>
<path d="M155.635 0.00170898C155.859 0.0671629 156.086 0.123526 156.308 0.198071C157.619 0.647158 158.459 1.8926 158.388 3.27804C158.304 4.91076 157.117 6.13256 155.484 6.27983C154.217 6.39438 153.141 6.03074 152.37 4.99075C151.133 3.32531 151.839 0.558068 154.293 0.0926172C154.352 0.0817083 154.401 0.0326178 154.455 0.00170898C154.85 0.00170898 155.242 0.00170898 155.637 0.00170898H155.635Z" fill="white"/>
<path d="M110.406 11.769C110.417 11.6272 110.432 11.5235 110.43 11.4181C110.424 10.6236 110.419 9.8272 110.404 9.03266C110.401 8.87084 110.459 8.82175 110.615 8.82175C112.297 8.82539 113.979 8.82357 115.661 8.82175C115.804 8.82175 115.861 8.86721 115.861 9.01811C115.85 15.3053 115.842 21.5907 115.837 27.8779C115.837 28.5361 115.848 29.1961 115.864 29.8543C115.868 30.0252 115.826 30.0943 115.637 30.0925C113.97 30.0852 112.304 30.0834 110.637 30.0888C110.466 30.0888 110.417 30.0306 110.419 29.8652C110.428 29.0016 110.43 28.1379 110.432 27.2761C110.432 27.227 110.419 27.1798 110.406 27.0852C110.257 27.2579 110.137 27.3998 110.013 27.5379C108.561 29.1779 106.744 30.1216 104.566 30.3706C102.644 30.5906 100.806 30.307 99.0863 29.4016C96.979 28.2943 95.5481 26.5689 94.6409 24.3962C93.7936 22.3689 93.5772 20.2489 93.7609 18.0744C93.9318 16.0617 94.5172 14.189 95.67 12.5163C97.1827 10.3217 99.2572 8.99811 101.895 8.59085C103.69 8.31267 105.446 8.46176 107.119 9.21084C108.381 9.77629 109.466 10.5854 110.317 11.689C110.33 11.7054 110.35 11.7181 110.406 11.769ZM110.424 19.3198C110.443 18.6908 110.348 17.9489 110.132 17.2271C109.47 15.0126 107.621 13.4581 105.386 13.2326C103.086 13.0017 100.974 14.0963 99.9372 16.1962C98.8772 18.3417 98.8881 20.5598 99.9899 22.6853C101.072 24.7707 102.852 25.8089 105.221 25.6761C106.819 25.5871 108.135 24.8707 109.135 23.6107C110.101 22.3907 110.433 20.9707 110.424 19.3198Z" fill="white"/>
<path d="M76.183 1.70726V11.4144C76.2903 11.2981 76.363 11.2181 76.4357 11.1363C77.7157 9.69991 79.3375 8.90537 81.2212 8.63628C82.7448 8.4181 84.2593 8.46356 85.7302 8.97264C88.3738 9.88718 89.9465 11.7817 90.6793 14.4326C90.9829 15.5289 91.0829 16.6526 91.0865 17.7817C91.0993 21.7889 91.0902 25.7961 91.0956 29.8034C91.0956 30.0215 91.0338 30.0888 90.8174 30.0888C89.1811 30.0815 87.5447 30.0815 85.9084 30.0888C85.6829 30.0888 85.692 29.9725 85.692 29.8179C85.6938 26.1816 85.692 22.5452 85.6957 18.9089C85.6957 18.0435 85.672 17.1798 85.4393 16.3417C84.8866 14.3362 83.2793 13.1217 81.1684 13.0908C80.2321 13.0781 79.3248 13.2035 78.4921 13.6635C77.2521 14.349 76.5721 15.4362 76.3267 16.8017C76.2339 17.3198 76.1885 17.8544 76.1885 18.3816C76.1776 22.1852 76.1794 25.987 76.1885 29.7906C76.1885 30.0179 76.1321 30.0906 75.9012 30.0906C74.2721 30.0834 72.6431 30.0815 71.0158 30.0906C70.7831 30.0906 70.7867 29.9743 70.7867 29.8088C70.7867 25.8089 70.7885 21.8089 70.7867 17.8089C70.7867 12.6053 70.7831 7.39993 70.7812 2.19634C70.7812 1.85816 70.9522 1.68847 71.294 1.68726C72.8703 1.68907 74.4449 1.69271 76.0212 1.69635C76.0648 1.69635 76.1085 1.7018 76.1867 1.70544L76.183 1.70726Z" fill="white"/>
<path d="M133.853 11.3634C134.028 11.1943 134.21 11.0252 134.384 10.8488C135.55 9.66701 136.962 8.94701 138.584 8.66884C140.313 8.37247 142.033 8.45429 143.677 9.11429C146.288 10.1634 147.826 12.1306 148.451 14.847C148.682 15.8488 148.74 16.8688 148.74 17.8924C148.74 21.4524 148.74 25.0123 148.744 28.5723C148.744 28.9886 148.751 29.405 148.771 29.8214C148.78 30.0214 148.733 30.0995 148.511 30.0977C146.86 30.0868 145.209 30.0868 143.559 30.0923C143.355 30.0923 143.326 30.0086 143.326 29.8359C143.329 27.1014 143.328 24.3669 143.328 21.6324C143.328 20.3669 143.34 19.1033 143.324 17.8378C143.311 16.8451 143.08 15.9015 142.542 15.0561C141.817 13.9124 140.749 13.307 139.422 13.1415C138.493 13.027 137.573 13.0797 136.693 13.4215C135.16 14.0179 134.306 15.187 134.01 16.7651C133.886 17.4233 133.84 18.1033 133.837 18.7742C133.82 22.0378 133.831 25.3032 133.837 28.5668C133.837 28.9977 133.846 29.4305 133.864 29.8614C133.871 30.0414 133.81 30.0941 133.63 30.0941C131.979 30.0868 130.328 30.0886 128.677 30.0923C128.506 30.0923 128.455 30.0305 128.459 29.865C128.468 29.4341 128.466 29.0014 128.466 28.5705C128.466 22.1542 128.466 15.7397 128.466 9.32338C128.466 8.99126 128.633 8.8252 128.966 8.8252C130.511 8.8252 132.057 8.82883 133.602 8.81974C133.819 8.81974 133.866 8.88883 133.862 9.09429C133.85 9.85064 133.857 10.6052 133.857 11.3615L133.853 11.3634Z" fill="white"/>
<path d="M67.8465 16.0015H67.5629C65.7829 16.0015 64.0029 15.9979 62.2229 16.0051C62.0484 16.0051 61.9756 15.9524 61.9175 15.7924C61.2884 14.107 59.8175 13.0997 58.0229 13.0888C57.252 13.0833 56.4957 13.1052 55.7793 13.4343C54.4884 14.0252 53.6848 15.0415 53.2266 16.356C52.9703 17.0906 52.8503 17.8506 52.7957 18.6233C52.6903 20.0906 52.7957 21.5324 53.3775 22.8996C53.9939 24.3505 55.0321 25.3505 56.6066 25.6978C57.6011 25.916 58.5957 25.8669 59.5629 25.5305C60.7575 25.116 61.4956 24.2451 61.932 23.0923C61.9938 22.9305 62.0775 22.8687 62.2465 22.8705C64.012 22.8778 65.7774 22.8796 67.541 22.8851C67.6156 22.8851 67.6901 22.8923 67.7829 22.896C67.7756 22.9705 67.7792 23.0305 67.7647 23.0833C66.972 25.9269 65.3429 28.1014 62.6611 29.4196C61.5229 29.9796 60.3047 30.265 59.0429 30.3814C57.3793 30.5323 55.7411 30.4232 54.1557 29.8796C50.7612 28.7159 48.6303 26.336 47.7049 22.9069C47.014 20.3433 47.0503 17.7469 47.9376 15.2342C49.1885 11.6961 51.6866 9.47065 55.3739 8.71793C58.0939 8.16339 60.7611 8.40884 63.2484 9.75065C65.1483 10.7761 66.4592 12.3452 67.2665 14.3361C67.481 14.867 67.6465 15.4161 67.8501 16.0015H67.8465Z" fill="white"/>
<path d="M167.49 25.6906C167.657 25.6906 167.768 25.6906 167.879 25.6906C170.809 25.6906 173.742 25.6906 176.673 25.6906C176.959 25.6906 176.951 25.6906 176.949 25.9779C176.944 27.2579 176.942 28.5379 176.942 29.8178C176.942 30.1269 176.946 30.1306 176.635 30.1306C172.946 30.1306 169.257 30.1306 165.568 30.1306C164.228 30.1306 162.886 30.1269 161.546 30.1324C161.379 30.1324 161.32 30.0869 161.322 29.9142C161.33 28.656 161.33 27.3997 161.324 26.1415C161.324 25.9051 161.384 25.7088 161.53 25.5142C164.126 22.0288 166.717 18.5398 169.308 15.0507C169.697 14.5289 170.084 14.0053 170.469 13.4816C170.508 13.4289 170.542 13.3725 170.608 13.2744H170.308C167.422 13.2744 164.535 13.2725 161.65 13.2798C161.435 13.2798 161.366 13.2289 161.366 13.0053C161.375 11.6871 161.37 10.3689 161.364 9.05076C161.364 8.88894 161.402 8.82349 161.579 8.82349C166.593 8.82894 171.608 8.82894 176.624 8.8253C176.799 8.8253 176.86 8.87258 176.859 9.05621C176.849 10.3362 176.859 11.6162 176.844 12.8962C176.844 13.058 176.789 13.2471 176.693 13.3762C174.613 16.1689 172.522 18.9561 170.433 21.7434C169.49 23.0034 168.544 24.2633 167.599 25.5233C167.571 25.5579 167.55 25.5961 167.488 25.6906H167.49Z" fill="white"/>
<path d="M152.337 19.4323C152.337 16.1142 152.337 12.796 152.337 9.47789C152.337 9.41062 152.337 9.34153 152.333 9.27426C152.325 8.97487 152.467 8.82517 152.759 8.82517C154.335 8.82517 155.91 8.82881 157.486 8.82153C157.699 8.82153 157.768 8.87062 157.768 9.09789C157.764 15.9451 157.768 22.7941 157.768 29.6413C157.768 30.185 157.81 30.085 157.322 30.0868C155.731 30.0904 154.141 30.0868 152.55 30.0886C152.399 30.0886 152.317 30.0741 152.317 29.885C152.322 26.4014 152.321 22.916 152.321 19.4323C152.324 19.4323 152.33 19.4323 152.333 19.4323H152.337Z" fill="white"/>
<path d="M119.472 8.84712C119.568 8.83985 119.664 8.82894 119.761 8.82894C121.373 8.82894 122.988 8.82894 124.601 8.82349C124.793 8.82349 124.859 8.86894 124.859 9.07803C124.855 15.9343 124.859 22.7888 124.859 29.6451C124.859 30.1869 124.901 30.0887 124.413 30.0906C122.83 30.0924 121.246 30.0869 119.664 30.0833C119.606 30.0833 119.546 30.076 119.47 30.0706V8.84712H119.472Z" fill="white"/>
</svg>
